<?xml version="1.0" encoding="utf-8"?>
<!-- Generator: Adobe Illustrator 19.2.0, SVG Export Plug-In . SVG Version: 6.00 Build 0)  -->
<svg version="1.1" id="Layer_1" xmlns="http://www.w3.org/2000/svg" xmlns:xlink="http://www.w3.org/1999/xlink" x="0px" y="0px"
	 viewBox="0 0 500 500" style="enable-background:new 0 0 500 500;" xml:space="preserve">
<g id="XMLID_466_">
	<g id="XMLID_468_">
		<path id="XMLID_457_" d="M191.2,323.4c-2.2,4.8-5.3,5.7-10.8,5.7H98.3l-11.7,26H197c5.6,0,8.8-0.8,11-5.7l88.8-197.6L282.6,120
			L191.2,323.4z"/>
		<path id="XMLID_456_" d="M14.8,391.9c-2.3,4.9-5.5,5.8-11.1,5.8h-3.9v15.9h17.1c4.1-0.3,6.7-1.4,8.6-5.3L169.6,87.3h-18
			L14.8,391.9z"/>
	</g>
	<path id="XMLID_455_" d="M495.8,397.7c-5.7,0-8.9-0.8-11.1-5.7L347.9,87.3h-50.6L441.7,409c2,3.6,4.9,4.5,9.4,4.6h48.6v-15.9H495.8
		z"/>
</g>
</svg>
